{
	"meshes":[{
		"primitives":[{
			"attributes":{
				"POSITION":1,
				"NORMAL":2,
				"TEXCOORD_0":3
			},
			"indices":0,
			"material":0
		}]
	}],
	"asset":{
		"version":"2.0",
		"generator":"Created using the official Cinema 4D glTF Exporter 1.000x290161"
	},
	"nodes":[{
		"name":"Subdivision Surface",
		"mesh":0
	}],
	"scenes":[{
		"nodes":[0]
	}],
	"accessors":[{
		"bufferView":0,
		"type":"SCALAR",
		"max":[9129],
		"count":53376,
		"componentType":5123,
		"byteOffset":0,
		"min":[0]
	},
	{
		"bufferView":1,
		"type":"VEC3",
		"max":[48.81061553955078,
		63.47555160522461,
		48.81061553955078],
		"count":9130,
		"componentType":5126,
		"byteOffset":0,
		"min":[-48.81061553955078,
		-63.47555160522461,
		-48.81061553955078]
	},
	{
		"bufferView":1,
		"type":"VEC3",
		"max":[1.0,
		1.0,
		1.0],
		"count":9130,
		"componentType":5126,
		"byteOffset":12,
		"min":[-1.0,
		-0.962853193283081,
		-1.0]
	},
	{
		"bufferView":1,
		"type":"VEC2",
		"max":[1.0,
		1.0],
		"count":9130,
		"componentType":5126,
		"byteOffset":24,
		"min":[0.0,
		0.0]
	}],
	"bufferViews":[{
		"target":34963,
		"byteOffset":0,
		"buffer":0,
		"byteLength":106752
	},
	{
		"target":34962,
		"byteOffset":106752,
		"buffer":0,
		"byteLength":292160,
		"byteStride":32
	}],
	"buffers":[{
		"uri":"data:application/octet-stream;base64,",
		"byteLength":398912
	}],
	"materials":[{
		"pbrMetallicRoughness":{
			"baseColorFactor":[1.0,
			1.0,
			1.0,
			1.0],
			"metallicFactor":1.0,
			"roughnessFactor":1.0
		},
		"name":"",
		"emissiveFactor":[0.0,
		0.0,
		0.0],
		"alphaMode":"OPAQUE",
		"doubleSided":false
	}]
}